<svg xmlns="http://www.w3.org/2000/svg" width="230" height="540"><rect id="backgroundrect" width="100%" height="100%" x="0" y="0" fill="none" stroke="none" style="" class=""/><g class="currentLayer" style=""><title>Layer 1</title><g id="Capa_2" data-name="Capa 2" class=""><g id="Capa_1-2" data-name="Capa 1"><path fill="#790914" d="M230.08819580078125,199.69073486328125 c-0.9985827803611755,2.9405269622802734 -1.9419442415237427,5.904062747955322 -3.0233588218688965,8.81697940826416 c-0.33132699131965637,0.9203527569770813 -1.0399986505508423,1.6566349267959595 -1.6014138460159302,2.517164707183838 c-6.773796558380127,-6.309018135070801 -15.185820579528809,-8.361404418945312 -23.685277938842773,-10.123880386352539 c-15.43891716003418,-3.179818630218506 -30.997480392456055,-3.050969362258911 -46.39958572387695,-0.16106173396110535 c-21.8261661529541,4.1001715660095215 -33.399600982666016,24.817312240600586 -26.30828285217285,46.40878677368164 c0.9939810037612915,3.0279605388641357 2.6414122581481934,5.8396382331848145 3.8516762256622314,8.807775497436523 c0.4923887550830841,1.210263967514038 0.9893792867660522,2.6092000007629395 0.8605298399925232,3.85627818107605 a508.46270751953125,508.46270751953125 0 0 0 -2.5217666625976562,72.28910827636719 c0.5568134188652039,14.380512237548828 1.7164578437805176,28.74721908569336 2.880704164505005,43.09552001953125 c2.866898775100708,35.231101989746094 2.006369113922119,70.29653930664062 -5.117161273956299,104.99384307861328 c-3.925304412841797,19.106523513793945 -8.665121078491211,38.042781829833984 -13.046000480651855,57.06187057495117 c-0.15185821056365967,0.6626539826393127 -0.3957516849040985,1.3069008588790894 -0.8099104166030884,2.636810541152954 c-1.4357502460479736,-5.384063720703125 -2.7610583305358887,-10.123880386352539 -3.9713222980499268,-14.9235200881958 c-5.982293128967285,-23.468996047973633 -10.919984817504883,-47.135868072509766 -13.947945594787598,-71.16627502441406 c-2.7610583305358887,-21.803157806396484 -3.096987009048462,-43.71675491333008 -1.7164578437805176,-65.61194610595703 c1.8407055139541626,-28.88987159729004 5.084949016571045,-57.71992492675781 3.778048038482666,-86.73403930664062 c-0.5982292890548706,-13.381929397583008 -1.6428296566009521,-26.75005340576172 -2.5723860263824463,-40.1181755065918 c-0.1564599722623825,-2.268669366836548 0.059822928160429,-4.201410293579102 1.210263967514038,-6.304416179656982 c5.627956867218018,-10.330960273742676 7.533087730407715,-21.237140655517578 3.3546857833862305,-32.52066421508789 c-4.417693614959717,-11.936975479125977 -13.188654899597168,-19.368824005126953 -25.636425018310547,-21.6282901763916 C56.6016960144043,197.41746520996094 37.51818084716797,197.57852172851562 18.802806854248047,203.4503631591797 c-4.983710289001465,1.5645997524261475 -9.824766159057617,3.5203492641448975 -13.598211288452148,7.574502944946289 C1.8637144565582275,207.5735626220703 0.9893792867660522,203.14666748046875 0,198.7703857421875 V192.81570434570312 c0.16566349565982819,-0.7408839464187622 0.36353933811187744,-1.472564458847046 0.4923887550830841,-2.218050241470337 c1.3437150716781616,-7.776980400085449 4.270436763763428,-14.84068775177002 9.488837242126465,-20.8367862701416 c1.2240692377090454,-1.4035379886627197 2.7610583305358887,-2.549377202987671 4.173799514770508,-3.865481376647949 c1.25167977809906,1.6566349267959595 2.241058826446533,3.0095534324645996 3.2718541622161865,4.334861755371094 c4.877869606018066,6.276805877685547 11.18228530883789,10.188304901123047 19.115726470947266,11.186887741088867 a92.49545288085938,92.49545288085938 0 0 0 10.993613243103027,0.7776980996131897 c13.570601463317871,0.08743350952863693 27.150405883789062,0.03681410849094391 40.716407775878906,0.03681410849094391 h2.033979654312134 c-4.601763725280762,-2.995748281478882 -9.203527450561523,-5.572735786437988 -13.372725486755371,-8.743350982666016 C56.744346618652344,157.99874877929688 44.324188232421875,137.41046142578125 37.73446273803711,113.13616180419922 c-5.489904403686523,-20.247760772705078 -5.719992637634277,-40.44490051269531 1.8683160543441772,-60.283103942871094 C60.283103942871094,-1.1624486446380615 120.56620788574219,-12.515000343322754 158.95872497558594,13.043195724487305 c25.2498779296875,16.81484603881836 37.05800247192383,41.41587448120117 37.274288177490234,71.22149658203125 c0.20707936584949493,27.61058235168457 -9.203527450561523,52.22081756591797 -26.690229415893555,73.62821960449219 c-7.822998523712158,9.599279403686523 -17.182985305786133,17.44528579711914 -28.259431838989258,23.14687156677246 c-0.4877869486808777,0.2530970275402069 -0.9433615803718567,0.5706186890602112 -1.6704403162002563,1.016989827156067 c16.5433406829834,0 32.7093391418457,0.1426546722650528 48.870731353759766,-0.050619401037693024 c11.660869598388672,-0.13805292546749115 20.758556365966797,-5.2460103034973145 27.044565200805664,-15.158208847045898 a7.109724998474121,7.109724998474121 0 0 1 0.7869016528129578,-0.8559280633926392 c0.947963297367096,0.7730962634086609 1.8407055139541626,1.3805291652679443 2.586191177368164,2.1306166648864746 c4.31185245513916,4.229020595550537 7.054503917694092,9.42441177368164 8.844589233398438,15.10759162902832 c0.9801757335662842,3.1199958324432373 1.5599979162216187,6.36423921585083 2.300881862640381,9.553261756896973 zM127.5010757446289,168.97396850585938 c3.382296323776245,-2.0247762203216553 6.723176956176758,-3.7182250022888184 9.7327299118042,-5.876452445983887 c10.123880386352539,-7.243175983428955 17.606348037719727,-16.796438217163086 23.174482345581055,-27.80845832824707 c12.254496574401855,-24.232887268066406 13.216265678405762,-48.86613082885742 1.076812744140625,-73.33370971679688 c-10.92458724975586,-22.01483726501465 -32.44243621826172,-32.60349655151367 -56.28877258300781,-28.218015670776367 c-17.362455368041992,3.1890223026275635 -29.534120559692383,13.593610763549805 -36.97517013549805,29.184385299682617 c-11.191489219665527,23.468996047973633 -10.625473022460938,47.11745834350586 0.6350433826446533,70.45760345458984 c6.442469120025635,13.345114707946777 15.388297080993652,24.670055389404297 28.291643142700195,32.451637268066406 c1.8407055139541626,1.1182286739349365 3.874685049057007,1.987962007522583 6.1387529373168945,3.133801221847534 c0,-8.743350982666016 0,-16.98971176147461 0,-25.240673065185547 c0,-9.718925476074219 -3.3546857833862305,-17.79962158203125 -11.32033920288086,-23.703683853149414 c-0.10123880207538605,-0.07822998613119125 -0.119645856320858,-0.2623005211353302 -0.239291712641716,-0.5430080890655518 c11.752904891967773,-4.831851959228516 18.407054901123047,-14.417325973510742 23.468996047973633,-25.806692123413086 c5.1125593185424805,11.38016128540039 11.808125495910645,20.915016174316406 23.68988037109375,25.912532806396484 c-0.8467245697975159,0.7408839464187622 -1.5139802694320679,1.3391133546829224 -2.1950414180755615,1.9235371351242065 c-5.3748602867126465,4.601763725280762 -8.862997055053711,10.36317253112793 -9.125297546386719,17.422277450561523 C127.22956848144531,148.70779418945312 127.5010757446289,158.51414489746094 127.5010757446289,168.97396850585938 z" id="svg_1"/></g></g></g></svg>