<svg xmlns="http://www.w3.org/2000/svg" width="424" height="219" style=""><rect id="backgroundrect" width="100%" height="100%" x="0" y="0" fill="none" stroke="none" style="" class=""/><g class="currentLayer" style=""><title>Layer 1</title><g id="Capa_2" data-name="Capa 2" class="" fill-opacity="1" fill="#790914"><g id="Capa_1-2" data-name="Capa 1" fill="#790914"><path fill="#790914" d="M0,191.87204700605253 v-0.4389358879737557 c0.34675937118401023,-0.6320676843064206 0.7330228583953584,-1.2465777025011846 1.0314992453448752,-1.9005923288418671 q12.404327443305988,-26.823373732443315 24.81743315724657,-53.63357330987992 a10.973396215106732,10.973396215106732 0 0 1 2.3878110955961347,-3.3139658909294667 q38.31910404652763,-35.84350574521568 76.70404287312977,-71.61677632661485 c9.125477447021069,-8.524134975383504 18.527481667456527,-16.78490833361957 27.214024773162237,-25.721642275993418 c27.75830679841124,-28.53083285889943 61.358842913501576,-40.4786666075147 100.36267456637688,-33.12649375302772 c44.71000452377302,8.43195807192916 73.1706112175957,35.992740845373646 86.29919210679691,79.37716351214476 c1.0841716109559556,3.5904954764500303 1.6767350386297295,7.3302294275854365 2.5589960904998463,11.28942970574667 c0.8778717759475114,-0.8164207178859115 1.6240627433213035,-1.4792138257691505 2.343917633343537,-2.163953805383997 c5.333071059971928,-5.091656244253443 10.63541592303784,-10.218427820730199 15.99921261749455,-15.274968170339093 c7.101983142661311,-6.69816132146309 14.261026169289948,-13.33048336348179 21.371786457743383,-20.01547390446558 c1.9839902586350746,-1.861088001906566 4.064546274831173,-3.4675935009321392 6.781559391861606,-4.191837666876978 A55.56927872126016,55.56927872126016 0 0 0 373.4422287514899,49.1608172033757 q24.066855023029802,-9.36689170031832 48.12493177542501,-18.755729077223123 c0.5750059724700805,-0.22385730778780122 1.189516271875462,-0.3379806435821635 2.3351389408930174,-0.6540144154327194 c-1.3168075233159584,3.0242680558251607 -2.422925865398213,5.605211510175195 -3.5948843305567095,8.151038788670064 Q409.2418431435326,61.920683729704706 398.11482944200543,85.93486013018719 a10.012127212392556,10.012127212392556 0 0 1 -2.115671067208794,2.9979321190789108 c-4.64394138261855,4.38935859852694 -9.380059668691445,8.730434458878676 -14.045948415160183,13.102235953715194 q-15.037942489937905,14.0240027385737 -30.053941552974266,28.091896830320366 q-12.0619580159198,11.26309489384289 -24.141472573108786,22.53935719363767 q-15.125729695653717,14.203966285322622 -30.190009247180342,28.447432538815974 c-6.347013061021073,5.960749468355743 -12.799369869027146,11.763481066549048 -19.984749957244503,16.776128938142506 c-14.234690232543699,9.933118277311337 -29.689620824789245,16.802465999731226 -46.86079781286526,19.61165320810983 c-4.38935859852694,0.7198548197195791 -8.822610799911786,1.0446674246259633 -13.23830589760621,1.5494436465839243 h-8.77871719705388 c-0.7900845702316985,-0.10973397199343893 -1.5713903074075688,-0.28091896689715057 -2.3614748776392673,-0.32920195113164397 c-19.721388340097064,-1.2860821700417944 -38.02501173310429,-7.053699279643638 -54.375375423147034,-18.154387168006792 c-21.771220268466777,-14.78336026826753 -36.74332122927535,-34.75933307971991 -44.209620600751805,-60.13421341848243 c-1.2860821700417944,-4.367411797097986 -2.19467929926347,-8.84894729907927 -3.3139658909294667,-13.46216304721304 c-0.6540144154327194,0.5706165910934935 -1.259745952084927,1.057835533604397 -1.8259730914991792,1.5889478329139166 Q81.90104905100179,147.92139213807604 61.15693369016617,167.23457739555488 a9.410784740754991,9.410784740754991 0 0 1 -2.8004109062183318,2.0103263359866332 Q29.19801292271768,180.6133277494173 0,191.87204700605253 zM272.2236480517058,109.19847414424748 c0.1141233182186987,-32.09060157602221 -26.43710732767181,-58.81740983211512 -58.57599164186922,-58.927140464732474 c-33.495196867475215,-0.127291400833637 -60.07276552404028,25.985003893140856 -60.182496156657635,59.11588003243105 c-0.10534460819251557,32.630492216268976 26.524896783072563,59.2563413613243 59.37924164957849,59.383628535210846 S272.105134649084,142.33813305354215 272.2236480517058,109.19847414424748 z" id="svg_1"/><path d="M237.14387884791904,133.6779258845827 H188.55368973012082 V85.09650153930943 h48.590202615907856 z" id="svg_2" fill="#790914"/></g></g></g></svg>