<svg xmlns="http://www.w3.org/2000/svg" width="204" height="419" style=""><rect id="backgroundrect" width="100%" height="100%" x="0" y="0" fill="none" stroke="none" style="" class=""/><g class="currentLayer" style=""><title>Layer 1</title><g id="Capa_2" data-name="Capa 2" class=""><g id="Capa_1-2" data-name="Capa 1"><path fill="#790914" d="M203.70504222855743,130.94975946990417 c-0.4083375140032608,4.1772925149199125 -0.6900904287889809,8.37500261912055 -1.2250124926270445,12.535962089776831 C198.1965771740397,175.58513013251286 185.81168359554795,203.6869262699247 161.56460442292428,225.81063304626696 c-4.385544656444296,3.9976242872771195 -9.49384716353876,7.2112403264333125 -14.291813138262341,10.780110251167514 c-0.3593369984957029,0.26541937669470883 -0.759507792836196,0.48183823788185975 -1.163761897625335,0.7350074856996791 c6.941737787438171,7.84416347066923 8.125916089158522,14.900236913633762 3.797538865415504,21.805223672465672 c-4.263043466440877,6.802902763047314 -11.408950035572047,8.983425604368165 -20.73129529606888,6.2679810448884155 L125.25114638063769,272.3611121117756 L130.6861236001714,275.2194892777061 c-0.971843294191963,1.3352637019017877 -1.6986840108461365,2.7399447184680525 -2.7807785143128427,3.764871986764433 C118.81984200422721,287.5104276541333 116.43514722071814,298.5763833651072 116.21872914965479,310.3365102474163 s0,23.51615776280596 -0.0326669990214945,35.27627832412463 c0,3.103365126177877 1.3883475772407294,5.581973827782605 3.0992817663464933,8.011582013879774 a40.06199500947787,40.06199500947787 0 0 1 7.35007535082417,22.09514380074154 c0.12658463625459415,3.4831189732132373 -0.6615067618210801,6.79881940321593 -2.678694123466343,9.65718234691792 c-3.364701143041202,4.769382455903894 -6.8396530015297685,9.465263644719073 -10.351355888624596,14.124395385175603 c-4.491712802184082,5.973977951843068 -8.914007697110833,11.992872861831358 -11.960205983180288,19.191863898894326 c-0.3266700210791562,-0.6288397350217956 -0.57167249985147,-1.045343968687824 -0.7676745124989637,-1.4781817898276017 c-3.242199953037783,-7.186740167445009 -7.97483177539732,-13.401637534525435 -12.71562992235772,-19.60019988203271 c-2.2662732002489605,-2.968613659149355 -4.430462009651421,-6.0188949099882905 -6.766152524564859,-8.930341926560175 c-4.900049970508178,-6.125062660666174 -5.749391975931246,-12.985132461352862 -3.8506229382853974,-20.392374849816406 c1.4332646341514277,-5.573806713057934 3.4055347413550408,-10.894445116570068 7.043821783222768,-15.447408711286812 c2.7440280782994364,-3.4341182601747278 2.944113500161052,-7.562410852179937 2.9767803788121228,-11.617202967220237 c0.09391762797383629,-10.878110887120727 0.15108488166268863,-21.756221774241453 -0.13883475278579915,-32.62616831207083 c-0.11841787955477301,-4.516212961172386 -0.9555097561009518,-9.044676001838923 -1.833435280343707,-13.475138011490344 c-1.069844226441603,-5.44313919845365 -3.773038706427201,-10.130853667606061 -7.497077094877795,-14.255062899779887 c-1.6578502150013463,-1.8375188377060425 -3.1278652851661803,-3.8506229382853974 -4.806132694386349,-5.93722731829871 l5.630974145759211,-2.7889452339756104 c-1.302596724485241,-2.3887743902523795 -2.556192933462924,-4.679547749489643 -3.89553989643062,-7.137739849468403 c-4.68363150438293,1.8375188377060425 -9.306012611295102,1.927352951527439 -13.830391897068353,-0.26950276121746164 a16.0354141072537,16.0354141072537 0 0 1 -7.227574555882654,-6.941737787438171 c-3.581120004228353,-6.615068210803656 -2.3356905149134377,-13.589472086769092 3.6219536025421917,-20.135123180439223 c-0.10616775067788353,-0.1429181249628675 -0.17966849924785144,-0.34708689431018236 -0.3266700210791562,-0.4369211809711615 C36.00898857423999,224.1772891137134 21.415005228207633,205.52035483421605 11.676156474785842,182.85761927616932 C1.700470480772367,159.6599635802113 -1.6397303057495805,135.37613416910517 0.7286272359631418,110.28788287121642 c2.347940791938541,-24.62683637768521 10.077769989798071,-47.3671510317854 24.520667441821615,-67.56353093068583 c12.499211851294376,-17.49317988804819 28.33862468664165,-30.80498350628318 48.84941697156819,-38.032555691794414 A81.2959142905629,81.2959142905629 0 0 1 94.34000500022421,0.34708689431018236 A16.10891458421861,16.10891458421861 0 0 0 96.12035620769802,0 h11.408950035572047 c1.4046811153317407,0.19191862812474092 2.805278673301146,0.4083375140032608 4.21404314846427,0.57167249985147 c19.191863898894326,2.405107829577915 35.82753190136145,10.48610755318407 50.01318084450304,23.45490578508759 c24.14908011691807,22.07880878116839 36.46454235604779,50.14792855844348 40.707169023331744,82.15750953597535 c0.5512556513118128,4.156876110824896 0.8166750280065216,8.350502460132248 1.2250124926270445,12.527795370114063 zM15.277693278171114,121.1251577896519 c0.9105926991902535,0 1.5067654074127645,0.05716725368885234 2.0947714947379836,0 c12.821798068097507,-1.3801808575779617 25.651762855857783,-2.7072778398169817 38.461311634584945,-4.218126508295654 c3.675037675412085,-0.4369211809711615 7.525660613697482,-0.8411752857603005 10.878110887120727,-2.254023120754809 c21.98080972546279,-9.261094863026074 43.843198855320225,-18.783526335508327 65.74233980390773,-28.236540690857055 c0.5390055224349233,-0.2327523745867932 1.0535107871160676,-0.5308387533894177 1.7027673706775204,-0.8656754447486037 c-24.03066268180794,-18.33435517380849 -44.03103340756388,-40.26207964121568 -61.74062820618019,-64.63165960878086 c-0.23683575910954602,0.10616775067788353 -0.784008001207237,0.35117027883293517 -1.3230135236421603,0.6084228864821384 c-14.659317103334502,7.023405774189655 -26.06826713890655,17.754514917256756 -35.088443771880975,31.115318853468352 c-11.898954795585723,17.61976404282109 -18.13835232165445,37.24038072401072 -20.12287152069746,58.30243290716453 C15.571696766278365,114.29775486761628 15.477777909908923,117.67470609015163 15.277693278171114,121.1251577896519 zM143.12000485465887,137.60974463885304 c-0.6941737886203647,0.2531692725091883 -1.1310949202087883,0.4083375140032608 -1.5598492827517063,0.5675891400200861 q-11.551868419794289,4.491712802184082 -23.099653479757194,8.983425604368165 c-10.175770625751284,3.952707329131897 -10.208437504402355,3.915956695587539 -16.61525278355782,12.658462884718347 c-12.037789819976581,16.4437516706397 -21.776640153645985,34.21868496730099 -30.245560048888365,52.71637453436483 c-1.8252685606809393,3.9894575676143518 -3.523952966588979,8.031998813036694 -5.238970416760651,11.947955903686136 c0.2817528900943511,0.30216976332537726 0.3593369984957029,0.4083375140032608 0.4695881090049703,0.49000505631010327 c22.156392617964684,12.572712328259286 44.81504165568481,13.822223597157972 67.98002731249653,2.968613659149355 a3.4259519355738632,3.4259519355738632 0 0 0 1.5516825630889386,-1.9191862318646713 q2.1029382144007513,-6.590567261691547 3.9894575676143518,-13.254635000348003 c3.491285692876005,-12.368543546566286 5.381888405920989,-24.969840183769065 4.928633489327865,-37.832471060056605 c-0.3225866365564034,-9.232511344206387 -1.016760449868137,-18.45277102867101 -1.5516825630889386,-27.681200593293624 C143.5446616351419,144.07781189572688 143.32008948639668,140.91727874425487 143.12000485465887,137.60974463885304 zM62.10991943130239,221.96820408691565 c5.006218116247965,-10.290105491153838 9.62451546826685,-20.49854378568 14.875735174397846,-30.36806084382988 s11.127197417082755,-19.38786517080075 16.819422355374627,-29.212466851053023 L81.66112215585372,151.49321863348177 q-11.061863659780613,-9.938934965407213 -22.127809099144997,-19.865621431567888 c-2.9114464239790294,-2.6133601686332497 -4.381461296612912,-2.5684430129570757 -7.011154904571697,0.08983424962392572 c-4.491712802184082,4.532546400497921 -9.101843829602103,8.950758725717094 -13.507806470389028,13.569055287612173 C33.39971216050003,151.1583831273083 27.91165758414877,157.17319744289853 22.45218336612197,163.21251191747706 a2.989030655837226,2.989030655837226 0 0 0 -0.5185886245125282,2.450024985254089 c5.3737216862582216,16.741838518578334 13.822223597157972,31.670655790536557 26.039683620086862,44.378122153726736 A85.37520972508673,85.37520972508673 0 0 0 62.10991943130239,221.96820408691565 zM186.60386804481732,95.252895083147 c-2.588859812113995,0.616589655527644 -4.920467164727,1.0249271695309048 -7.162240008456706,1.7272677271967751 c-5.98622803133722,1.8824359933822166 -11.539618340300137,4.671381029826875 -14.985987470092823,10.130853667606061 c-5.64730798014665,8.94259121593052 -10.963862233703594,18.097518723340613 -16.366167833843406,27.19527761286372 a4.287544020491083,4.287544020491083 0 0 0 -0.4083375140032608,2.323440435419286 q1.0780110448698466,19.5307843451468 2.2907735567682153,39.0615686902936 a5.3451381674385345,5.3451381674385345 0 0 0 1.2944299060569975,2.9971973754999937 c5.422722004234828,5.994394750999987 10.935278714883907,11.903038155417107 16.427418231314164,17.83209875405305 c0.355253638664319,0.38383725624948184 0.7554244330048121,0.7227574062055275 1.3393470617331715,1.2740130081346024 C189.40098217129616,166.04228028062607 193.92944086628177,131.83176519348308 186.60386804481732,95.252895083147 zM120.8206883216053,17.2849269564 c0,6.823319562204233 -0.15516825383975696,13.409804254188202 0.05716725368885234,19.979953926599023 c0.13475138060873082,4.050708360147013 0.11025113520063634,8.330084870851522 1.4046811153317407,12.074540058459036 c3.4177848208491923,9.86135112861092 7.505243024416757,19.489949166585347 11.355866357764057,29.20021677155887 a3.797538865415504,3.797538865415504 0 0 0 1.1270115603774045,1.6333500560130432 c2.6868608431291108,1.94776994821531 5.308387533894177,4.083375238798084 8.195333996415854,5.64730798014665 c7.370492149981089,4.03029116592819 14.896151973554765,7.758412914210169 22.31972859146765,11.71520360317345 c1.0984279427922417,0.5798392688969756 1.9028527925391359,0.6451732731128068 2.9114464239790294,-0.10616775067788353 c4.442712089145573,-3.307534105401828 9.506097243032912,-5.120552586588616 14.920653712790681,-6.047478823869881 c0.7227574062055275,-0.12250126407752582 1.42509791448866,-0.3634203830184557 2.6460270472843206,-0.6860070195748591 c-2.5071922204244146,-6.631400860005385 -4.618297352018885,-13.238301561022467 -7.448075986777383,-19.518532685405034 C170.02944727932572,52.769455051677596 158.02023544730218,37.3465480796267 140.87006094558546,26.309185368958197 A72.86374463380298,72.86374463380298 0 0 0 120.8206883216053,17.2849269564 zM77.05915666291276,132.22376773729593 c24.349166328903493,15.970080349951559 66.62026216765526,-2.584776452282611 73.78659027668618,-32.62616831207083 c-5.786142609475604,-0.57167249985147 -11.498783951862492,-1.2045956934701252 -17.22367655892924,-1.686433931351985 a27.28102816932278,27.28102816932278 0 0 0 -13.454721212333425,2.3356905149134377 c-6.5742342174279145,2.8583625486400877 -13.23421899131489,5.643224225253363 -20.053455983811546,7.840080900961652 c-6.218980331849906,2.0049371833856355 -10.72294321352814,5.9249772388045585 -14.614400145189279,10.820943849481353 a80.85082806894206,80.85082806894206 0 0 0 -4.953134043378071,6.9662379464264745 C79.24784385352496,127.91172711337367 78.20658709652207,130.11674142232096 77.05915666291276,132.22376773729593 zm0.3348367654332929,-113.35040274475432 c1.6333500560130432,6.651818449286111 39.163652686078194,48.28591015434199 48.616662300684084,54.04346964005981 c-2.115188293894903,-5.586057187613989 -4.365127857287376,-11.16394765556521 -6.329231442359173,-16.839839154531546 c-1.1678452574567189,-3.37286786270397 -2.47044198194196,-6.864153160518072 -2.699111120154214,-10.371772687781515 C116.369813463416,36.6319569486393 116.369813463416,27.521949559869654 116.09621571273237,18.42827244993032 c-0.020416876317447263,-0.7880913610386209 0,-1.572099362245858 0,-2.3520241517699247 C102.72725137784846,13.389387455031283 89.92995741935829,14.291813138262341 77.39399849007668,18.873360251798772 zm-57.60417837599789,139.65142455454497 L55.52752442014025,121.99899679356804 l-0.2980864034939934,-0.35117027883293517 L15.367527194461559,125.92313087548973 A135.15971609804183,135.15971609804183 0 0 0 19.789821694326406,158.5452063462435 zM141.7234831503447,224.14871823687463 a91.09193245199549,91.09193245199549 0 0 0 24.394083287048716,-22.613732079574902 l-16.42333487148278,-17.754514917256756 C149.1348065282682,197.82318362611477 145.91303562130634,210.8205685373332 141.7234831503447,224.14871823687463 z" id="svg_1"/></g></g></g></svg>